<?xml version="1.0" encoding="utf-8"?>
<!-- Generator: Adobe Illustrator 19.2.1, SVG Export Plug-In . SVG Version: 6.00 Build 0)  -->
<svg version="1.1" id="Layer_1" xmlns="http://www.w3.org/2000/svg" xmlns:xlink="http://www.w3.org/1999/xlink" x="0px" y="0px"
	 viewBox="0 0 288.5 216.4" style="enable-background:new 0 0 288.5 216.4;" xml:space="preserve">
<style type="text/css">
	.st0{fill:none;stroke:#231F20;stroke-width:0.5669;stroke-miterlimit:10;}
	.st1{fill:none;stroke:#231F20;stroke-width:0.4774;stroke-miterlimit:10;}
	.st2{fill:none;stroke:#231F20;stroke-width:0.4973;stroke-miterlimit:10;}
	.st3{fill:none;stroke:#231F20;}
</style>
<path class="st0" d="M135.8,127.2c-23.2-3.7-41-23.9-41-48.2c0-27,21.8-48.8,48.8-48.8"/>
<path class="st0" d="M149.9,30.6c24,3.1,42.5,23.6,42.5,48.4c0,27-21.8,48.8-48.8,48.8"/>
<line class="st1" x1="143.6" y1="30.2" x2="143.6" y2="39.6"/>
<line class="st2" x1="143.6" y1="127.8" x2="143.6" y2="118"/>
<g id="_x38_ya8I7.tif">
	<g>
		<path class="st0" d="M133,117.8c0-1,0.1-2.1,0.1-3.1c0-3,0-6,0.1-9.1c0-4.2,0.1-8.4,0.1-12.6c0-2.3,0-4.5,0.1-6.8
			c1.1,0,2.3,0.1,3.4,0.1c-0.1,9.3-0.2,18.7-0.3,28.1c4.3,0,8.6,0.1,12.9,0.1c0-1.1,0-2.1,0-3c0-0.1-0.3-0.3-0.4-0.3
			c-1.1,0-2.2,0-3.3,0c-0.3,0-0.5,0-0.8,0c0-0.8,0-1.6,0-2.4c1.6,0,3.1,0,4.6,0c0-0.9,0-1.7-0.1-2.7c-2.2,0-4.4-0.1-6.6-0.1
			c0-0.8,0-1.6,0-2.4c2.2,0,4.4-0.1,6.7-0.1c0-1.2-0.1-2.3-0.1-3.6c-1.4,0-2.9-0.1-4.4-0.1c0-0.8,0-1.6,0-2.4c1.5,0,3,0,4.6,0
			c0-1-0.1-1.9-0.1-2.9c-2.2,0.1-4.4,0.2-6.6,0.3c0-1,0-1.8,0-2.5c2.2-0.1,4.4-0.1,6.7-0.2c-0.1-1-0.1-2.1-0.2-3.4
			c-1.3,0.1-2.8,0.1-4.3,0.2c0-1,0.1-1.8,0.1-2.7c2.6,0,5.2,0.1,8,0.1c-0.1,10.5-0.2,21-0.4,31.5c-1,0-1.9,0-2.9,0
			c-2.8,0-5.6-0.1-8.3-0.1c-2.8,0-5.6,0-8.4-0.1C133.2,117.8,133.1,117.8,133,117.8C133,117.8,133,117.8,133,117.8z"/>
		<path class="st0" d="M153.6,39.8c0,1.1-0.1,2.1-0.1,3.2c0,2.8-0.1,5.7-0.1,8.5c0,4.1-0.1,8.2-0.1,12.3c0,0.8,0.1,1.6,0.1,2.3
			c-2.6,0-5-0.1-7.5-0.1c0-0.6,0.1-1.4,0.1-2.2c1.2,0,2.4,0,3.8,0c-0.1-1-0.1-1.8-0.2-2.9c-1.9,0.1-3.9,0.2-5.9,0.3
			c0-1-0.1-1.8-0.1-2.6c2.1,0,4.1,0,6.2,0c-0.1-1.2-0.1-2.4-0.2-3.6c-1,0-2.1,0-3.2,0c-0.4,0-0.6-0.1-0.6-0.6c0-0.5,0-1,0-1.4
			c0-0.4,0.1-0.5,0.5-0.5c1.1,0,2.3,0,3.5-0.1c-0.1-0.8-0.1-1.7-0.2-2.6c-1.8,0-3.9,0-5.8-0.1c0-0.8-0.1-1.6-0.1-2.4
			c2.1,0,4.1-0.1,6.1-0.1c-0.1-1.3-0.1-2.7-0.2-4.1c-4,0-8.3-0.1-12.6-0.1c-0.1,7.8-0.1,15.5-0.2,23.3c-1.2,0-2.3,0-3.4,0
			c0.1-8.9,0.2-17.8,0.3-26.7c1.1,0,2.1,0,3.1,0c1.9,0,3.8,0.1,5.7,0.1c3.1,0,6.2,0.1,9.2,0.1C152.4,39.7,153,39.7,153.6,39.8
			C153.6,39.7,153.6,39.8,153.6,39.8z"/>
		<path class="st0" d="M182.3,77c-2.1,0.8-4.2,1.6-6.2,2.4c-3.6,1.4-7.2,2.8-10.9,4.2c-0.6,0.2-1.2,0.3-1.8,0.3
			c-13.2,0-26.3,0-39.5,0c-4.3,0-8.6,0-12.9,0c-0.2,0-0.4,0-0.5,0c0-5.1,0-10.3,0-15.5c1.4,0,2.8,0.1,4.3,0.1c2.7,0,5.4,0,8.2,0
			c3.7,0,7.3,0,11,0c4.8,0,9.6,0,14.3,0c4.5,0,9,0,13.5,0c0.6,0,1.3,0,1.9,0c0.6,0,1.2,0.1,1.8,0.4c4.1,2,8.3,3.9,12.4,5.9
			c1.3,0.6,2.6,1.2,3.9,1.8C182,76.8,182.1,76.9,182.3,77z M162.5,82.4c0,0.1,0,0.1,0,0.2c0.7-0.1,1.4,0,2-0.2
			c3.1-1.2,6.2-2.4,9.4-3.7c0.3-0.1,0.4-0.2,0.4-0.5c0-1,0-2,0-3c0-0.3-0.1-0.5-0.4-0.6c-3.2-1.5-6.3-3-9.4-4.4
			c-0.4-0.2-0.9-0.1-1.4-0.2c0,0.1-0.1,0.1-0.1,0.2c1.2,1.2,2.5,2.5,3.8,3.8c-1.2,0.9-2.3,1.7-3.6,2.5c1.2,0.8,2.3,1.5,3.5,2.2
			C165.3,80,163.9,81.2,162.5,82.4z M118.1,71.6c-1.6,0-3.1,0-4.7,0c0,3.1,0,6.3,0,9.5c1.6,0,3.1,0,4.6,0
			C118.1,77.9,118.1,74.8,118.1,71.6z"/>
	</g>
</g>
<g>
	<path class="st3" d="M75.9,147.3c0-2.9,0.9-5.3,2.6-7.3c0.9-1,1.8-1.8,2.8-2.3c1.1-0.5,2.2-0.8,3.5-0.8c1.4,0,2.7,0.4,4.1,1.1
		c1.3,0.7,2.3,1.8,3.1,3.1H91c-0.8-1.1-1.7-2-2.8-2.6c-1.1-0.6-2.3-0.9-3.5-0.9c-2.3,0-4.2,0.9-5.8,2.8c-1.6,1.9-2.4,4.2-2.4,6.9
		s0.8,5,2.4,6.9c1.6,1.9,3.5,2.9,5.8,2.9c1.2,0,2.3-0.3,3.4-0.9c1.1-0.6,2-1.4,2.8-2.5h0.8c-0.8,1.2-1.8,2.2-3.1,2.9
		c-1.3,0.7-2.6,1.1-3.9,1.1c-1.2,0-2.4-0.3-3.5-0.8c-1-0.5-2-1.2-2.8-2.3C76.8,152.6,75.9,150.1,75.9,147.3z"/>
	<path class="st3" d="M97.8,155.4c1.3,1.1,3,1.6,4.9,1.6c1.9,0,3.5-0.5,4.9-1.6c1.3-1.1,2-2.4,2-4v-14.6h0.7v14.6
		c0,1.7-0.8,3.2-2.3,4.4c-1.5,1.2-3.3,1.8-5.4,1.8c-2.1,0-3.8-0.6-5.3-1.8c-1.4-1.1-2.1-2.5-2.2-4.1h0v-15h0.7v14.6
		C95.8,153,96.5,154.3,97.8,155.4z"/>
	<path class="st3" d="M117.9,144.6h4.6c1.8,0,3.4,0.6,4.6,1.9c1.3,1.3,1.9,2.8,1.9,4.6c0,1.9-0.6,3.4-1.7,4.6
		c-1.2,1.3-2.6,1.9-4.4,2h0h0h-8.6h-0.7V157h9.3c1.6,0,2.9-0.5,3.9-1.7c1-1.1,1.5-2.5,1.5-4.2c0-1.6-0.6-3-1.7-4.2
		c-1.2-1.1-2.5-1.7-4.2-1.7h-4.6h-0.2c-1.1,0-2.1-0.5-2.9-1.3c-0.8-0.8-1.2-1.8-1.2-2.9c0-1.1,0.4-2.1,1.2-2.9
		c0.8-0.8,1.8-1.2,2.9-1.3h0.1h0.1h0.4h7v0.7h-7.4c-1,0-1.8,0.3-2.5,1c-0.7,0.7-1,1.5-1,2.5c0,1,0.3,1.8,1,2.5
		C116.1,144.3,116.9,144.6,117.9,144.6z"/>
	<path class="st3" d="M142.5,136.9h9.4v0.7h-9.4v20.2h-0.7v-20.2h-9.4v-0.7h9.4H142.5z"/>
	<path class="st3" d="M165.1,157.7c-1.2,0-2.4-0.3-3.5-0.8c-1-0.5-2-1.2-2.8-2.3c-1.7-2-2.6-4.5-2.6-7.4c0-2.9,0.9-5.3,2.6-7.3
		c0.9-1,1.8-1.8,2.8-2.3c1.1-0.5,2.2-0.8,3.5-0.8s2.4,0.3,3.5,0.8c1,0.5,1.9,1.2,2.8,2.3c1.7,2,2.6,4.5,2.6,7.3
		c0,2.9-0.9,5.3-2.6,7.4c-0.9,1-1.8,1.8-2.8,2.3C167.5,157.5,166.3,157.7,165.1,157.7z M159.3,154.2c1.6,1.9,3.5,2.9,5.8,2.9
		s4.2-1,5.8-2.9s2.4-4.2,2.4-6.9s-0.8-5-2.4-6.9c-1.6-1.9-3.5-2.8-5.8-2.8s-4.2,0.9-5.8,2.8c-1.6,1.9-2.4,4.2-2.4,6.9
		S157.8,152.3,159.3,154.2z"/>
	<path class="st3" d="M195.3,136.9h0.7v20.9h-0.7v-19.2l-8.2,19.2h-0.8l-8.1-19.1v19.1h-0.7v-20.9h0.7l8.5,20L195.3,136.9
		L195.3,136.9z"/>
	<path class="st3" d="M214.2,157v0.7h-5.1h-8.2h-0.7v-20.9h0.6h8.3h5.1v0.7h-13.4v7h8.2h5.2v0.7h-13.4V157H214.2z"/>
	<path class="st3" d="M98.7,178.4v0.1v0.1c0,1.3-0.1,2.4-0.3,3.5s-0.4,1.9-0.8,2.6c-0.3,0.7-0.8,1.3-1.3,1.9c-0.5,0.5-1,0.9-1.7,1.2
		c-0.6,0.3-1.3,0.6-2,0.7c-0.7,0.2-1.5,0.3-2.4,0.4c-0.8,0.1-1.7,0.1-2.7,0.1c-0.9,0-1.9,0-2.9,0c-1,0-1.8,0-2.3,0v-20.9h0.4
		c3.7,0,5.9,0,6.4,0c3,0.2,5.2,0.8,6.6,2C97.7,171.6,98.6,174.4,98.7,178.4L98.7,178.4z M83.1,188.2c0.4,0,1.1,0,1.9,0
		c3.2,0,5.5-0.1,6.8-0.4c2.5-0.5,4.2-1.8,5.1-3.8c0.6-1.4,1-3.3,1-5.6c0-1.4-0.1-2.6-0.4-3.7c-0.2-1-0.6-1.9-1-2.6
		c-0.4-0.7-0.9-1.3-1.5-1.7c-0.6-0.5-1.3-0.8-2-1.1c-0.7-0.2-1.5-0.4-2.4-0.5c-0.9-0.1-1.8-0.2-2.7-0.2c-0.9,0-1.9,0-3,0
		c-0.7,0-1.2,0-1.6,0H83L83.1,188.2z"/>
	<path class="st3" d="M117.7,188.2v0.7h-5.1h-8.2h-0.7v-20.9h0.6h8.3h5.1v0.7h-13.4v7h8.2h5.2v0.7h-13.4v11.8H117.7z"/>
	<path class="st3" d="M125.8,175.8h4.6c1.8,0,3.4,0.6,4.6,1.9c1.3,1.3,1.9,2.8,1.9,4.6c0,1.9-0.6,3.4-1.7,4.6
		c-1.2,1.3-2.6,1.9-4.4,2h0h0h-8.6h-0.7v-0.7h9.3c1.6,0,2.9-0.5,3.9-1.7c1-1.1,1.5-2.5,1.5-4.2c0-1.6-0.6-3-1.7-4.2
		c-1.2-1.1-2.5-1.7-4.2-1.7h-4.6h-0.2c-1.1,0-2.1-0.5-2.9-1.3c-0.8-0.8-1.2-1.8-1.2-2.9c0-1.1,0.4-2.1,1.2-2.9
		c0.8-0.8,1.8-1.2,2.9-1.3h0.1h0.1h0.4h7v0.7h-7.4c-1,0-1.8,0.3-2.5,1c-0.7,0.7-1,1.5-1,2.5c0,1,0.3,1.8,1,2.5
		C124,175.5,124.8,175.8,125.8,175.8z"/>
	<path class="st3" d="M143.5,188.2v0.7h-0.7v-20.9h0.6h0.1v8.4V188.2z"/>
	<path class="st3" d="M167.5,178.5L167.5,178.5c0,2.9-0.9,5.4-2.6,7.4c-0.9,1-1.8,1.8-2.8,2.3c-1.1,0.6-2.2,0.8-3.5,0.8
		s-2.4-0.3-3.5-0.8c-1-0.5-2-1.2-2.8-2.3c-1.7-2-2.6-4.5-2.6-7.4c0-2.9,0.9-5.3,2.6-7.3c0.9-1,1.8-1.8,2.8-2.3
		c1.1-0.5,2.2-0.8,3.5-0.8s2.4,0.3,3.5,0.8c1,0.5,1.9,1.2,2.8,2.3c0.6,0.8,1,1.4,1.2,1.8h-0.8c-0.8-1.3-1.7-2.3-2.9-3.1
		s-2.4-1.1-3.8-1.1c-2.3,0-4.2,0.9-5.8,2.8c-1.6,1.9-2.4,4.2-2.4,6.9s0.8,5,2.4,6.9s3.5,2.9,5.8,2.9c2.1,0,4-0.9,5.6-2.6
		c1.6-1.8,2.4-3.9,2.6-6.4h-5.4v-0.7H167.5L167.5,178.5z"/>
	<path class="st3" d="M185.9,168.1h0.7v20.9h-0.7h-0.1l-12.7-19.8v19.8h-0.7v-20.9h0h0.7h0.1l12.7,19.8V168.1z"/>
	<path class="st3" d="M195.8,175.8h4.6c1.8,0,3.4,0.6,4.6,1.9c1.3,1.3,1.9,2.8,1.9,4.6c0,1.9-0.5,3.4-1.7,4.6
		c-1.2,1.3-2.6,1.9-4.4,2h0h0h-8.6h-0.7v-0.7h9.3c1.6,0,2.9-0.5,3.9-1.7c1-1.1,1.5-2.5,1.5-4.2c0-1.6-0.6-3-1.7-4.2
		s-2.5-1.7-4.2-1.7h-4.6h-0.2c-1.1,0-2.1-0.5-2.9-1.3c-0.8-0.8-1.2-1.8-1.2-2.9c0-1.1,0.4-2.1,1.2-2.9c0.8-0.8,1.8-1.2,2.9-1.3h0.1
		h0.1h0.4h7v0.7h-7.4c-1,0-1.8,0.3-2.5,1s-1,1.5-1,2.5c0,1,0.3,1.8,1,2.5S194.8,175.8,195.8,175.8z"/>
</g>
</svg>
