<?xml version="1.0" encoding="utf-8"?>
<!-- Generator: Adobe Illustrator 19.2.1, SVG Export Plug-In . SVG Version: 6.00 Build 0)  -->
<svg version="1.1" id="Layer_1" xmlns="http://www.w3.org/2000/svg" xmlns:xlink="http://www.w3.org/1999/xlink" x="0px" y="0px"
	 viewBox="0 0 288.5 216.4" style="enable-background:new 0 0 288.5 216.4;" xml:space="preserve">
<style type="text/css">
	.st0{fill:none;stroke:#231F20;}
	.st1{fill:none;stroke:#231F20;stroke-width:0.5669;stroke-miterlimit:10;}
</style>
<g>
	<path class="st0" d="M56.1,157.5v0.7h-5.1h-8.2H42v-20.9h0.6h8.3h5.1v0.7H42.7v7h8.2h5.2v0.7H42.7v11.8H56.1z"/>
	<path class="st0" d="M73.4,137.4h0.7v20.9h-0.7h-0.1l-12.7-19.8v19.8h-0.7v-20.9h0h0.7h0.1l12.7,19.8V137.4z"/>
	<path class="st0" d="M96.4,137.4l-9,20.9h-0.7l-9-20.9h0.7l5,11.6l0.3,0.6l3.4,7.9l3.4-7.9l0.3-0.6l5-11.6H96.4z"/>
	<path class="st0" d="M103.4,157.5v0.7h-0.7v-20.9h0.6h0.1v8.4V157.5z"/>
	<path class="st0" d="M118.8,145.7l5.3,12.5h-0.7l-5.3-12.5h-7.6v11.8v0.7h-0.7v-20.9h0.6h8.3c1.7,0,3,0.4,3.8,1.2
		c0.9,0.7,1.3,1.8,1.3,3c0,1.6-0.5,2.7-1.5,3.4c-0.6,0.5-1.7,0.8-3.2,0.8H118.8z M110.4,145.1h8.2c1.3,0,2.4-0.2,3.2-0.7
		c0.8-0.6,1.2-1.5,1.2-2.8c0-1.1-0.4-2-1.2-2.6c-0.8-0.6-1.9-0.9-3.3-0.9h-8.2V145.1z"/>
	<path class="st0" d="M137.1,158.2c-1.2,0-2.4-0.3-3.5-0.8c-1-0.5-2-1.2-2.8-2.3c-1.7-2-2.6-4.5-2.6-7.4c0-2.9,0.9-5.3,2.6-7.3
		c0.9-1,1.8-1.8,2.8-2.3c1.1-0.5,2.2-0.8,3.5-0.8s2.4,0.3,3.5,0.8c1,0.5,1.9,1.2,2.8,2.3c1.7,2,2.6,4.5,2.6,7.3
		c0,2.9-0.9,5.3-2.6,7.4c-0.9,1-1.8,1.8-2.8,2.3C139.5,157.9,138.4,158.2,137.1,158.2z M131.4,154.7c1.6,1.9,3.5,2.9,5.8,2.9
		s4.2-1,5.8-2.9s2.4-4.2,2.4-6.9s-0.8-5-2.4-6.9c-1.6-1.9-3.5-2.8-5.8-2.8s-4.2,0.9-5.8,2.8c-1.6,1.9-2.4,4.2-2.4,6.9
		S129.8,152.8,131.4,154.7z"/>
	<path class="st0" d="M163.1,137.4h0.7v20.9h-0.7H163l-12.7-19.8v19.8h-0.7v-20.9h0h0.7h0.1l12.7,19.8V137.4z"/>
	<path class="st0" d="M186.5,137.4h0.7v20.9h-0.7V139l-8.2,19.2h-0.8l-8.1-19.1v19.1h-0.7v-20.9h0.7l8.5,20L186.5,137.4L186.5,137.4
		z"/>
	<path class="st0" d="M205.4,157.5v0.7h-5.1H192h-0.7v-20.9h0.6h8.3h5.1v0.7H192v7h8.2h5.2v0.7H192v11.8H205.4z"/>
	<path class="st0" d="M222.7,137.4h0.7v20.9h-0.7h-0.1l-12.7-19.8v19.8h-0.7v-20.9h0h0.7h0.1l12.7,19.8V137.4z"/>
	<path class="st0" d="M237.2,137.4h9.4v0.7h-9.4v20.2h-0.7V138h-9.4v-0.7h9.4H237.2z"/>
	<path class="st0" d="M76,188.7v0.7h-0.7v-20.9h0.6h8.3h5.1v0.7H76v7h8.2h5.2v0.7H76V188.7z"/>
	<path class="st0" d="M101.6,176.9l5.3,12.5h-0.7l-5.3-12.5h-7.6v11.8v0.7h-0.7v-20.9h0.6h8.3c1.7,0,3,0.4,3.8,1.2
		c0.9,0.7,1.3,1.8,1.3,3c0,1.6-0.5,2.7-1.5,3.4c-0.6,0.5-1.7,0.8-3.2,0.8H101.6z M93.3,176.3h8.2c1.3,0,2.4-0.2,3.2-0.7
		c0.8-0.6,1.2-1.5,1.2-2.8c0-1.1-0.4-2-1.2-2.6c-0.8-0.6-1.9-0.9-3.3-0.9h-8.2V176.3z"/>
	<path class="st0" d="M113.1,188.7v0.7h-0.7v-20.9h0.6h0.1v8.4V188.7z"/>
	<path class="st0" d="M133.6,188.7v0.7h-5.1h-8.2h-0.7v-20.9h0.6h8.3h5.1v0.7h-13.4v7h8.2h5.2v0.7h-13.4v11.8H133.6z"/>
	<path class="st0" d="M150.9,168.6h0.7v20.9h-0.7h-0.1l-12.7-19.8v19.8h-0.7v-20.9h0h0.7h0.1l12.7,19.8V168.6z"/>
	<path class="st0" d="M172.8,178.9v0.1v0.1c0,1.3-0.1,2.4-0.3,3.5s-0.4,1.9-0.8,2.6c-0.3,0.7-0.8,1.3-1.3,1.9
		c-0.5,0.5-1,0.9-1.7,1.2s-1.3,0.6-2,0.7c-0.7,0.2-1.5,0.3-2.4,0.4c-0.8,0.1-1.7,0.1-2.7,0.1c-0.9,0-1.9,0-2.9,0c-1,0-1.8,0-2.3,0
		v-20.9h0.4c3.7,0,5.9,0,6.4,0c3,0.2,5.2,0.8,6.6,2C171.8,172.1,172.7,174.9,172.8,178.9L172.8,178.9z M157.2,188.7
		c0.4,0,1.1,0,1.9,0c3.2,0,5.5-0.1,6.8-0.4c2.5-0.5,4.2-1.8,5.1-3.8c0.6-1.4,1-3.3,1-5.6c0-1.4-0.1-2.6-0.4-3.7
		c-0.2-1-0.6-1.9-1-2.6c-0.4-0.7-0.9-1.3-1.5-1.7c-0.6-0.5-1.3-0.8-2-1.1c-0.7-0.2-1.5-0.4-2.4-0.5c-0.9-0.1-1.8-0.2-2.7-0.2
		c-0.9,0-1.9,0-3,0c-0.7,0-1.2,0-1.6,0h-0.3L157.2,188.7z"/>
	<path class="st0" d="M193.6,188.7v0.7h-15.1h-0.7v-20.9h0.7v20.2H193.6z"/>
	<path class="st0" d="M214.5,168.6l-8.6,10.4l-0.1,0.1v10.3h-0.7v-10.3L205,179l-8.6-10.4h0.9l8.2,9.9l8.2-9.9H214.5z"/>
</g>
<path class="st1" d="M138.7,125.4c-23.2-3.7-41-23.9-41-48.2c0-27,21.8-48.8,48.8-48.8"/>
<path class="st1" d="M152.8,28.9c24,3.1,42.5,23.6,42.5,48.4c0,27-21.8,48.8-48.8,48.8"/>
<line class="st1" x1="146.5" y1="28.5" x2="146.5" y2="41.8"/>
<line class="st1" x1="146.5" y1="126.1" x2="146.5" y2="113.3"/>
<g id="_x39_MGthM.tif">
	<g>
		<path class="st1" d="M106.8,84.1c1.3-3.3,3.4-6.1,5-9.2c0.2-0.4,0.4-0.7,0.7-1.2c-1.8-1-3.6-2.1-5.6-3.2c0.3,0,0.5-0.1,0.7-0.1
			c5.7-0.1,11.4-0.2,17-0.3c0.4,0,0.7,0,0.9,0.4c2.8,5.1,5.6,10.2,8.5,15.3c0,0.1,0.1,0.2,0.2,0.4c-2-1.1-3.8-2.2-5.7-3.2
			c-0.1,0.2-0.3,0.4-0.4,0.6c-2.7,4.6-5.4,9.3-8,13.9c-1.7,2.9-2,4.1-2.2,7.5c-0.2-0.2-0.3-0.4-0.4-0.6c-3.3-5.6-6.6-11.3-9.8-16.9
			c-0.3-0.6-0.6-1.3-0.9-1.9C106.8,85.2,106.8,84.6,106.8,84.1z"/>
		<path class="st1" d="M161.6,42.4c0.1,0,0.1,0.1,0.2,0.1c1.5,0.2,2.5,1.1,3.2,2.4c1.5,2.6,3.1,5.2,4.6,7.8c0.1,0.2,0.2,0.4,0.4,0.7
			c1.8-1.1,3.6-2.1,5.5-3.3c-0.1,0.3-0.2,0.4-0.2,0.5c-2.8,5-5.6,10-8.4,15.1c-0.2,0.3-0.4,0.5-0.8,0.5c-5.8-0.1-11.6-0.2-17.4-0.3
			c-0.1,0-0.1,0-0.3-0.1c1.9-1.1,3.7-2.1,5.5-3.1c-0.1-0.2-0.2-0.4-0.3-0.5c-2.8-5-5.7-9.9-8.5-14.9c-1.2-2.2-2.9-3.8-5.1-4.9
			C147.1,42.4,154.4,42.4,161.6,42.4z"/>
		<path class="st1" d="M186.1,85.2c-0.3,0.9-0.5,1.8-0.9,2.6c-1.6,3.2-4.3,4.9-7.9,5c-1.9,0.1-3.8,0-5.7,0c-0.2,0-0.5-0.2-0.7-0.3
			c-3.2-5.5-6.4-11.1-9.6-16.6c0-0.1-0.1-0.2-0.1-0.3c5.4-3.1,10.7-6.1,16.1-9.2c0.1,0.2,0.2,0.3,0.3,0.5c2.4,4.2,4.9,8.3,7.3,12.6
			c0.6,1,0.9,2.1,1.3,3.2C186.1,83.4,186.1,84.3,186.1,85.2z"/>
		<path class="st1" d="M158.6,119.6c-0.2-0.2-0.3-0.5-0.5-0.7c-2.9-4.8-5.7-9.5-8.6-14.3c-0.2-0.3-0.3-0.6-0.1-1
			c3-4.9,6-9.9,8.9-14.9c0.1-0.1,0.1-0.2,0.3-0.4c0,2.3,0,4.4,0,6.5c0.3,0,0.6,0,0.8,0c5.1,0,10.3,0,15.4,0c2.9,0,5.7-0.1,8.2-1.8
			c-0.1,0.2-0.2,0.3-0.2,0.5c-3.3,5.8-6.6,11.5-9.9,17.3c-1,1.7-2.4,2.5-4.3,2.5c-3.2,0-6.5,0-9.8,0c0,2.1,0,4.2,0,6.3
			C158.7,119.6,158.7,119.6,158.6,119.6z"/>
		<path class="st1" d="M144.1,113.3c-0.3,0-0.5,0-0.7,0c-4.8,0-9.7,0-14.5,0c-4.8,0-8.7-3.7-8.9-8.5c-0.1-1.8,0.5-3.5,1.3-5.1
			c0.8-1.6,1.7-3.1,2.6-4.6c0.1-0.2,0.4-0.4,0.7-0.4c6.4,0,12.8,0,19.2,0c0.1,0,0.2,0,0.4,0C144.1,100.9,144.1,107,144.1,113.3z"/>
		<path class="st1" d="M119.9,60.8c0.8-1.4,1.6-2.8,2.4-4.2c1.8-3,3.5-6.1,5.3-9.1c1.3-2.3,3.2-3.8,5.9-4.2c3.6-0.6,6.7,0.5,8.9,3.6
			c1.3,1.8,2.4,3.8,3.5,5.8c0.1,0.2,0,0.6-0.1,0.8c-2.7,4.7-5.5,9.4-8.2,14.2c-0.5,0.8-1,1.7-1.5,2.5
			C130.6,67,125.3,63.9,119.9,60.8z"/>
	</g>
</g>
</svg>
