<?xml version="1.0" encoding="utf-8"?>
<!-- Generator: Adobe Illustrator 19.2.1, SVG Export Plug-In . SVG Version: 6.00 Build 0)  -->
<svg version="1.1" id="Layer_1" xmlns="http://www.w3.org/2000/svg" xmlns:xlink="http://www.w3.org/1999/xlink" x="0px" y="0px"
	 viewBox="0 0 288.5 216.4" style="enable-background:new 0 0 288.5 216.4;" xml:space="preserve">
<style type="text/css">
	.st0{fill:none;stroke:#231F20;stroke-width:0.4195;stroke-miterlimit:10;}
	.st1{fill:none;stroke:#231F20;stroke-width:0.5669;stroke-miterlimit:10;}
	.st2{fill:none;stroke:#231F20;stroke-width:0.4774;stroke-miterlimit:10;}
	.st3{fill:none;stroke:#231F20;stroke-width:0.4973;stroke-miterlimit:10;}
	.st4{fill:none;stroke:#231F20;}
</style>
<g id="qUN0Ne.tif">
	<g>
		<path class="st0" d="M132.2,104.1c0-2,0-4,0-5.9c0-1.2-0.3-2.3-0.9-3.3c-0.4-0.7-0.6-1.5-1-2.2c-0.5-0.9-1.1-1.9-1.7-2.8
			c-0.3-0.5-0.7-1.1-1-1.6c-0.5-0.8-1.1-1.7-1.7-2.5c-0.4-0.6-0.7-1.1-1-1.7c-0.6-1-1.2-1.9-1.7-2.9c-0.4-0.6-0.7-1.3-1-1.9
			c-0.4-0.8-0.8-1.6-1.2-2.4c-0.2-0.5-0.4-0.9-0.5-1.4c-0.4-1.2-0.8-2.4-1.1-3.7c-0.2-0.7-0.3-1.5-0.5-2.3c-0.5-2.3-0.6-4.6-0.4-6.9
			c0.1-1.3,0.3-2.7,0.7-4c0.5-1.5,1.1-3,1.8-4.5c0.6-1.2,1.4-2.2,2.2-3.2c1-1.1,2-2.2,3.1-3.2c1.1-0.9,2.2-1.7,3.4-2.4
			c1.2-0.7,2.4-1.3,3.6-1.9c0.9-0.4,1.8-0.7,2.7-1c1.2-0.5,2.5-0.7,3.8-0.9c3.2-0.6,6.4-0.5,9.6-0.1c1.3,0.2,2.5,0.5,3.7,0.8
			c1.3,0.4,2.7,0.9,4,1.4c1.2,0.6,2.4,1.3,3.5,2c1,0.6,2,1.3,2.9,2.1c0.9,0.8,1.7,1.6,2.4,2.5c0.9,1.1,1.7,2.2,2.5,3.4
			c0.4,0.6,0.7,1.3,1,2c0.8,1.7,1.3,3.5,1.6,5.4c0.3,1.9,0.3,3.8,0.2,5.8c-0.1,1.1-0.2,2.3-0.5,3.4c-0.2,1.2-0.5,2.4-0.9,3.6
			c-0.5,1.4-1.1,2.9-1.7,4.2c-0.5,1.2-1.2,2.4-1.8,3.5c-0.7,1.2-1.4,2.3-2.1,3.4c-0.5,0.8-1,1.7-1.6,2.5c-0.7,1-1.4,2-2,3
			c-0.6,0.9-1,1.9-1.6,2.9c-0.8,1.3-1.3,2.8-1.5,4.3c-0.2,0.9-0.1,1.8-0.1,2.6c0,3.3,0,6.7,0,10c0,0.3-0.3,0.6-0.5,0.8
			c-1,1-2,1.9-3.1,2.8c-0.7,0.6-1.3,1.2-2,1.8c-0.7,0.5-1.5,1-2.2,1.5c-0.9,0.6-1.8,1-2.8,1.2c-1.6,0.3-3.2,0.3-4.8-0.1
			c-1.1-0.3-2-0.9-3-1.5c-1.4-0.9-2.6-2-3.8-3.2c-1-1-2-1.9-3-2.9c-0.1-0.1-0.2-0.3-0.2-0.5C132.2,108.2,132.2,106.2,132.2,104.1
			C132.2,104.1,132.2,104.1,132.2,104.1z M154.2,98.4c0.3-1.4,0.5-2.8,0.8-4.2c0-0.1,0-0.2,0.1-0.3c0.6-1.3,1.1-2.6,1.7-3.9
			c0.2-0.4,0.4-0.7,0.6-1.1c0.5-0.8,1.1-1.7,1.6-2.5c0.4-0.6,0.7-1.1,1.1-1.7c0.5-0.8,1.1-1.6,1.6-2.4c0.4-0.6,0.8-1.2,1.1-1.8
			c0.4-0.6,0.8-1.2,1.1-1.9c0.4-0.8,0.8-1.5,1.1-2.3c0.5-1.2,1.1-2.4,1.5-3.7c0.4-1,0.6-2,0.8-3c0.2-1.3,0.4-2.5,0.5-3.8
			c0.1-1.4,0.2-2.8-0.1-4.1c-0.2-0.9-0.3-1.8-0.5-2.7c-0.2-1.2-0.8-2.3-1.4-3.4c-0.7-1.3-1.6-2.5-2.7-3.6c-1.1-1.1-2.2-2.1-3.6-2.9
			c-1.5-0.9-3-1.6-4.6-2.2c-1-0.4-2-0.7-3-1c-1.4-0.3-2.9-0.7-4.3-0.8c-1.8-0.2-3.6-0.2-5.4,0.1c-1.5,0.3-3,0.5-4.5,1
			c-0.8,0.2-1.6,0.4-2.4,0.7c-0.7,0.3-1.4,0.6-2.1,0.9c-1,0.5-1.9,1-2.9,1.6c-0.7,0.4-1.4,0.9-2,1.5c-0.7,0.7-1.4,1.4-2,2.1
			c-0.6,0.7-1.2,1.5-1.6,2.4c-0.4,0.7-0.7,1.6-1.1,2.4c-0.6,1.5-0.9,3-1,4.6c-0.2,1.8-0.2,3.6,0.2,5.4c0.2,0.8,0.2,1.5,0.4,2.3
			c0.2,1,0.5,2.1,0.7,3.1c0,0.2,0.1,0.4,0.1,0.5c0.4,1,0.8,2,1.2,3c0.3,0.7,0.6,1.5,1,2.2c0.4,0.8,0.9,1.6,1.3,2.3
			c0.3,0.6,0.7,1.2,1,1.8c0.7,1.1,1.4,2.1,2.1,3.2c0.4,0.6,0.7,1.1,1.1,1.7c0.5,0.9,1.1,1.7,1.6,2.6c0.4,0.7,0.8,1.5,1.1,2.3
			c0.4,1,0.8,1.9,1.1,2.9c0.2,0.7,0.2,1.4,0.2,2.1c0,0.5,0.2,0.6,0.7,0.6c1.4,0,2.7,0,4.1,0c0.2,0,0.3,0,0.5,0
			c-0.1-0.4-0.2-0.8-0.3-1.1c-0.3-1.4-0.6-2.8-0.8-4.2c-0.3-1.7-0.7-3.5-1-5.2c-0.2-0.8-0.3-1.6-0.5-2.4c-0.3-1.6-0.6-3.1-0.9-4.7
			c-0.2-1-0.4-2-0.5-2.9c-0.6-0.1-1.1-0.2-1.6-0.3c-0.5-0.1-1-0.3-1.5-0.5c-1.7-0.8-2.6-2.1-2.4-4c0.1-1.2,0.9-2.1,2-2.4
			c1-0.3,2-0.1,2.8,0.5c0.8,0.6,1.3,1.4,1.6,2.3c0.2,0.7,0.4,1.3,0.6,2c1.8-0.6,3.5-1.4,4.9-2.7c-0.1-0.1-0.2-0.3-0.3-0.4
			c-0.5-0.5-1.2-1-1.6-1.6c-0.8-1.3-1.1-2.7-0.7-4.2c0.5-1.7,1.7-2.4,3.2-2.8c1.4-0.4,2.5,0.2,3.6,1c0.4,0.3,0.9,0.8,1,1.3
			c0.6,2,0.4,4.4-1.6,5.9c-0.3,0.2-0.6,0.5-1,0.8c1.6,1.4,3.3,2.1,5.2,2.8c0.1-1.2,0.5-2.3,1.1-3.3c0.9-1.3,2.1-1.9,3.7-1.6
			c0.9,0.2,1.5,0.7,1.9,1.6c0.5,1.2,0.3,2.3-0.3,3.3c-0.7,1.1-1.9,1.7-3.2,1.9c-0.5,0.1-1,0.1-1.4,0.2c-0.1,0-0.3,0.1-0.3,0.2
			c-0.2,0.9-0.4,1.9-0.6,2.8c-0.2,0.8-0.3,1.6-0.5,2.3c-0.3,1.5-0.6,3-0.9,4.5c-0.3,1.6-0.6,3.3-1,4.9c-0.2,1.3-0.5,2.5-0.7,3.8
			c0,0.1,0,0.3-0.1,0.4c-0.1,0.5-0.2,0.9-0.3,1.5C150.7,98.4,152.5,98.4,154.2,98.4z M151.2,77.9c-1-0.5-2-1-2.9-1.5
			c-1-0.5-1.8-1.1-2.7-1.8c-0.3-0.2-0.6-0.4-1-0.1c-0.6,0.5-1.3,1-2,1.4c-1.1,0.7-2.2,1.3-3.4,1.7c-0.3,0.1-0.3,0.2-0.3,0.4
			c0.1,0.6,0.2,1.2,0.3,1.7c0.2,1.2,0.3,2.3,0.5,3.5c0.1,0.7,0.1,1.3,0.2,2c0.2,1.3,0.4,2.6,0.7,3.9c0.1,0.9,0.3,1.8,0.4,2.7
			c0.2,1.2,0.3,2.3,0.5,3.5c0.2,1,0.3,2,0.5,3.1c2,0,4,0,5.9,0c0.1-0.6,0.3-1.1,0.3-1.6c0.2-1.1,0.3-2.1,0.5-3.2
			c0.2-1.3,0.4-2.6,0.6-3.8c0.1-0.4,0.1-0.8,0.1-1.2c0.2-1.3,0.5-2.7,0.7-4c0.1-0.8,0.2-1.7,0.3-2.5C150.7,80.6,151,79.2,151.2,77.9
			z M136.5,109.7c5.7,0,11.3,0,17,0c0-0.9,0-1.7,0-2.5c-0.2,0-0.4,0-0.5,0c-5.3,0-10.6,0-15.9,0c-0.1,0-0.2,0-0.3,0
			c-0.1,0-0.2,0.1-0.2,0.2C136.5,108.2,136.5,108.9,136.5,109.7z M153.5,102.2c-5.7,0-11.3,0-16.9,0c0,0.8,0,1.6,0,2.4
			c5.7,0,11.3,0,16.9,0C153.5,103.7,153.5,103,153.5,102.2z M139.5,112.5c0,0.1,0,0.1-0.1,0.2c0.7,0.5,1.4,1,2.1,1.5
			c0.9,0.7,1.8,1.2,3,1.1c0.7,0,1.4,0.1,2-0.2c1.1-0.5,2.1-1.2,3.1-1.8c0.3-0.2,0.5-0.5,0.9-0.8
			C146.7,112.5,143.1,112.5,139.5,112.5z M145.1,72c0.6-0.8,1.2-1.6,1.7-2.3c0.6-0.9,0.3-2-0.6-2.7c-0.7-0.5-1.4-0.6-2.1-0.2
			c-0.6,0.3-1.1,0.9-1.2,1.7C143,70.1,144.1,70.9,145.1,72z M153.2,75.9c1.2,0,2.4-0.2,3.2-1.1c0.4-0.4,0.4-1.4,0-1.9
			c-0.4-0.5-1.2-0.5-1.8-0.1c-0.7,0.5-1,1.2-1.2,1.9C153.4,75.1,153.3,75.4,153.2,75.9z M136.7,76c0-0.1,0.1-0.1,0.1-0.2
			c-0.1-1.2-0.5-2.2-1.4-3c-0.4-0.4-1-0.4-1.5-0.1c-0.4,0.2-0.5,0.6-0.5,1c-0.1,0.9,0.3,1.4,1.1,1.7C135.2,75.6,135.9,75.8,136.7,76
			z"/>
	</g>
</g>
<path class="st1" d="M136.9,127.8c-23.2-3.7-41-23.9-41-48.2c0-27,21.8-48.8,48.8-48.8"/>
<path class="st1" d="M151,31.2c24,3.1,42.5,23.6,42.5,48.4c0,27-21.8,48.8-48.8,48.8"/>
<line class="st2" x1="144.7" y1="30.8" x2="144.7" y2="40.3"/>
<line class="st3" x1="144.7" y1="128.4" x2="144.7" y2="118.6"/>
<g>
	<path class="st4" d="M89.4,145.9c0-2.9,0.9-5.3,2.6-7.3c0.9-1,1.8-1.8,2.8-2.3c1.1-0.5,2.2-0.8,3.5-0.8c1.4,0,2.7,0.4,4.1,1.1
		c1.3,0.7,2.3,1.8,3.1,3.1h-0.9c-0.8-1.1-1.7-2-2.8-2.6c-1.1-0.6-2.3-0.9-3.5-0.9c-2.3,0-4.2,0.9-5.8,2.8c-1.6,1.9-2.4,4.2-2.4,6.9
		s0.8,5,2.4,6.9s3.5,2.9,5.8,2.9c1.2,0,2.3-0.3,3.4-0.9c1.1-0.6,2-1.4,2.8-2.5h0.8c-0.8,1.2-1.8,2.2-3.1,2.9
		c-1.3,0.7-2.6,1.1-3.9,1.1c-1.2,0-2.4-0.3-3.5-0.8c-1-0.5-2-1.2-2.8-2.3C90.2,151.2,89.4,148.7,89.4,145.9z"/>
	<path class="st4" d="M124.4,155.6v0.7h-15.1h-0.7v-20.9h0.7v20.2H124.4z"/>
	<path class="st4" d="M141.2,155.6v0.7h-5.1h-8.2h-0.7v-20.9h0.6h8.3h5.1v0.7h-13.4v7h8.2h5.2v0.7h-13.4v11.8H141.2z"/>
	<path class="st4" d="M162.4,135.4l-9,20.9h-0.7l-9-20.9h0.7l5,11.6l0.3,0.6l3.4,7.9l3.4-7.9l0.3-0.6l5-11.6H162.4z"/>
	<path class="st4" d="M181.5,155.6v0.7h-5.1h-8.2h-0.7v-20.9h0.6h8.3h5.1v0.7h-13.4v7h8.2h5.2v0.7h-13.4v11.8H181.5z"/>
	<path class="st4" d="M194.4,143.8l5.3,12.5h-0.7l-5.3-12.5H186v11.8v0.7h-0.7v-20.9h0.6h8.3c1.7,0,3,0.4,3.8,1.2
		c0.9,0.7,1.3,1.8,1.3,3c0,1.6-0.5,2.7-1.5,3.4c-0.6,0.5-1.7,0.8-3.2,0.8H194.4z M186,143.2h8.2c1.3,0,2.4-0.2,3.2-0.7
		c0.8-0.6,1.2-1.5,1.2-2.8c0-1.1-0.4-2-1.2-2.6c-0.8-0.6-1.9-0.9-3.3-0.9H186V143.2z"/>
	<path class="st4" d="M104.3,186.8v0.7h-0.7v-20.9h0.6h0.1v8.4V186.8z"/>
	<path class="st4" d="M126.9,177v0.1v0.1c0,1.3-0.1,2.4-0.3,3.5s-0.4,1.9-0.8,2.6c-0.3,0.7-0.8,1.3-1.3,1.9c-0.5,0.5-1,0.9-1.7,1.2
		s-1.3,0.6-2,0.7c-0.7,0.2-1.5,0.3-2.4,0.4c-0.8,0.1-1.7,0.1-2.7,0.1s-1.9,0-2.9,0c-1,0-1.8,0-2.3,0v-20.9h0.4c3.7,0,5.9,0,6.4,0
		c3,0.2,5.2,0.8,6.6,2C125.9,170.2,126.8,173,126.9,177L126.9,177z M111.3,186.8c0.4,0,1.1,0,1.9,0c3.2,0,5.5-0.1,6.8-0.4
		c2.5-0.5,4.2-1.8,5.1-3.8c0.6-1.4,1-3.3,1-5.6c0-1.4-0.1-2.6-0.4-3.7c-0.2-1-0.6-1.9-1-2.6c-0.4-0.7-0.9-1.3-1.5-1.7
		c-0.6-0.5-1.3-0.8-2-1.1c-0.7-0.2-1.5-0.4-2.4-0.5c-0.9-0.1-1.8-0.2-2.7-0.2c-0.9,0-1.9,0-3,0c-0.7,0-1.2,0-1.6,0h-0.3L111.3,186.8
		z"/>
	<path class="st4" d="M146,186.8v0.7h-5.1h-8.2h-0.7v-20.9h0.6h8.3h5.1v0.7h-13.4v7h8.2h5.2v0.7h-13.4v11.8H146z"/>
	<path class="st4" d="M166.5,187.5l-5-11.6h-7.4l-5,11.6h-0.7l9-20.9h0.7l9,20.9H166.5z M154.4,175.3h6.8l-3.4-7.9L154.4,175.3z"/>
	<path class="st4" d="M175.3,174.4h4.6c1.8,0,3.4,0.6,4.6,1.9c1.3,1.3,1.9,2.8,1.9,4.6c0,1.9-0.5,3.4-1.7,4.6
		c-1.2,1.3-2.6,1.9-4.4,2h0h0h-8.6H171v-0.7h9.3c1.6,0,2.9-0.5,3.9-1.7c1-1.1,1.5-2.5,1.5-4.2c0-1.6-0.6-3-1.7-4.2s-2.5-1.7-4.2-1.7
		h-4.6h-0.2c-1.1,0-2.1-0.5-2.9-1.3c-0.8-0.8-1.2-1.8-1.2-2.9c0-1.1,0.4-2.1,1.2-2.9c0.8-0.8,1.8-1.2,2.9-1.3h0.1h0.1h0.4h7v0.7
		h-7.4c-1,0-1.8,0.3-2.5,1s-1,1.5-1,2.5c0,1,0.3,1.8,1,2.5S174.3,174.4,175.3,174.4z"/>
</g>
</svg>
