<?xml version="1.0" encoding="utf-8"?>
<!-- Generator: Adobe Illustrator 19.2.1, SVG Export Plug-In . SVG Version: 6.00 Build 0)  -->
<svg version="1.1" id="Layer_1" xmlns="http://www.w3.org/2000/svg" xmlns:xlink="http://www.w3.org/1999/xlink" x="0px" y="0px"
	 viewBox="0 0 288.5 216.4" style="enable-background:new 0 0 288.5 216.4;" xml:space="preserve">
<style type="text/css">
	.st0{fill:none;stroke:#231F20;stroke-width:0.5669;stroke-miterlimit:10;}
	.st1{fill:none;stroke:#231F20;stroke-width:0.2789;stroke-miterlimit:10;}
	.st2{fill:none;stroke:#231F20;}
</style>
<path class="st0" d="M134.4,142.1c-23.2-3.7-41-23.9-41-48.2c0-27,21.8-48.8,48.8-48.8"/>
<path class="st0" d="M148.5,45.5c24,3.1,42.5,23.6,42.5,48.4c0,27-21.8,48.8-48.8,48.8"/>
<line class="st0" x1="142.2" y1="45.1" x2="142.2" y2="58.4"/>
<line class="st0" x1="142.2" y1="142.7" x2="142.2" y2="129.9"/>
<g id="M2A2nZ.tif">
	<g>
		<path class="st1" d="M111.5,127.5c0.3-0.5,0.7-1,1-1.6c0.2-0.3,0.3-0.7,0.5-1c0.2-0.3,0.4-0.7,0.6-0.7c0.2-0.1,0.6,0.2,0.8,0.4
			c0.3,0.4,0.5,0.9,0.7,1.4c0.3,0.7-0.4,1.3-1.5,1.4c-0.5,0-1,0.2-1.5,0.3C111.9,127.6,111.7,127.6,111.5,127.5z M112.2,126.8
			c0.5,0,1,0.1,1.4,0.1c0.5,0,1-0.2,0.9-0.8c-0.1-0.4-0.3-0.8-0.4-1.2c-0.1-0.1-0.3-0.2-0.4-0.3c-0.1,0.1-0.2,0.3-0.2,0.4
			c-0.2,0.4-0.3,0.8-0.5,1.1C112.8,126.4,112.5,126.6,112.2,126.8z"/>
		<path class="st1" d="M156,72.9c-0.7,0.2-1,0-0.9-0.6c0.4-1.3-0.2-2.4-0.7-3.6c-0.5-1-0.9-2.1-1.3-3.2c-0.1-0.4,0.1-0.9,0.1-1.4
			c0-0.3,0.1-0.6,0-0.9c-0.4-1.2-0.9-2.3-1.3-3.6c0.7-0.2,1.5-0.3,2.4,0c0,1.2-0.5,2.5,1.2,3c-0.1,0.7,0.1,0.9,0.8,0.9
			c0.8,0,1.3,0.6,1.6,1.4c0.2,0.4,0.5,0.8,0.8,1.2c0.2,0.2,0.4,0.4,0.4,0.7c0.1,0.8,0.2,1.6,0.3,2.4c0.1,0.7-0.2,1.1-0.9,1.4
			c0.2,0.8,0.4,1.6,0.7,2.3c0.1,0.4,0.2,0.7-0.2,1.1c-0.5,0.4-0.4,1.5,0.2,2.3c0.3,0.4,0.8,0.7,1.2,1.1c0,0.3-0.1,0.7-0.1,1.1
			c0.1,0,0.2,0,0.3,0c0.8-1.2,0.3-2.6,0.7-3.9c0.6-0.1,0.9,0.2,1.1,0.7c0.3,0.6,0.6,1.1,0.9,1.7c-0.9,1.5-0.4,3.2-0.4,4.9
			c0,0.3,0.4,0.7,0.7,1c0.9,0.8,1.7,1.5,2.6,2.2c1.1,0.9,2.3,1.1,3.6,0.2c0.9-0.6,1.9-0.7,2.9-0.2c0.8,0.4,1.4,1.4,0.3,2.3
			c-0.6,0.4-0.9,1.2-1.2,1.9c-0.5,1-1.1,1.8-2.3,2c-0.3,0-0.5,0.6-0.7,0.9c-0.2,0.5-0.3,1.1-0.6,1.6c-0.4,0.6-0.8,0.7-1.5,0.4
			c0-0.1,0.1-0.2,0.1-0.3c0.4-0.6,0.2-1.2-0.4-1.4c-0.9-0.3-1.7,0-2.3,0.6c-0.6,0.5-1.2,1-1,1.9c0.1,0.4-0.1,0.9-0.4,1.2
			c-1.2,1.4-2.5,2.7-4.2,3.5c-0.5,0.2-1,0.7-1.4,1.2c-1,1.5-2.5,2.1-4.2,2.4c-0.9,0.2-1.1-0.1-1.3-1c0-0.2-0.2-0.4-0.4-0.6
			c-0.4-0.3-0.8-0.6-1.3-1c0.1-0.3,0.3-0.7,0.6-1c0.3-0.3,0.6-0.4,1-0.6c2.3-1.1,2.8-3.9,1-5.7c-0.5-0.5-0.8-1.2-1.3-1.7
			c-0.3-0.4-0.7-0.8-1.2-1c-0.7-0.4-1-0.9-1-1.7c0.1-0.8,0.5-1.3,1.3-1.6c0.6-0.2,1.3-0.2,2-0.3c1.3-0.2,1.7-0.6,2.1-1.9
			c0.2-0.9,0.6-1.8,1.4-2.4c0.1,0,0.1-0.1,0.1-0.2c0.1-1.4,1.1-2.5,0.7-4c-0.4-1.6-0.5-3.2-0.7-4.8C155.9,73.5,155.9,73.2,156,72.9
			c0.4,0.2,0.8,0.4,1.2,0.6c-0.1-0.5-0.3-1.3-0.5-2c-0.1,0-0.1,0-0.2,0C156.3,72,156.1,72.4,156,72.9z M150.4,100.3
			c0.9,0.5,1.5,1.1,1.7,1.9c0.1,0.5,0.4,0.7,0.9,0.6c1.3-0.4,2.7-0.7,3.6-1.9c0.5-0.6,1.2-1.3,1.9-1.7c1.5-0.9,2.7-2,3.8-3.3
			c0.2-0.3,0.3-0.8,0.4-1.2c0.1-0.4,0.1-1,0.4-1.2c0.5-0.5,1.2-1.1,1.9-1.4c1.7-0.7,2.6,0.1,2.6,1.9c0.3-0.2,0.5-0.5,0.6-0.8
			c0.2-0.5,0.1-1,0.4-1.4c0.2-0.3,0.5-0.8,0.9-0.8c1.1-0.1,1.6-0.9,2-1.8c0.3-0.7,0.8-1.3,1.1-1.9c0.2-0.4,0.5-0.9,0.4-1.3
			c-0.2-0.6-0.8-0.8-1.4-0.7c-0.6,0.1-1.1,0.3-1.6,0.6c-1.4,0.8-2.6,0.6-3.8-0.3c-1.1-0.8-2.1-1.7-3.1-2.6c-0.3-0.3-0.5-0.9-0.6-1.4
			c-0.1-1.2-0.1-2.5-0.1-3.7c0-0.3,0.2-0.5,0.3-0.9c-0.2-0.5-0.5-1.2-0.8-1.8c-0.1,0-0.1,0-0.2,0c0,0.3,0,0.6-0.1,1
			c-0.1,0.8-0.2,1.6-0.4,2.3c-0.1,0.3-0.5,0.4-0.8,0.6c-0.1-0.3-0.4-0.6-0.3-0.9c0-0.5-0.1-0.7-0.5-1c-1.1-0.9-1.4-2.3-0.8-3.6
			c0.1-0.2,0.1-0.5,0-0.8c-0.2-0.9-0.4-1.7-0.7-2.7c0.9,0.2,1-0.3,1-0.8c0-0.6,0-1.2-0.1-1.8c0-0.3-0.3-0.5-0.4-0.8
			c-0.2-0.4-0.6-0.7-0.7-1c-0.4-1.3-0.7-1.5-2-1.6c-0.3,0-0.6-0.2-0.8-0.5c-0.3-0.3-0.4-0.6-0.6-1c-0.2-0.4-0.4-0.8-0.5-1.3
			c-0.1-0.4,0-0.8,0-1.4c-0.4,0-0.9,0-1.3,0c0.4,1.2,0.8,2.3,1.2,3.5c0.1,0.3,0,0.6,0,0.9c0,0.5-0.2,1-0.1,1.4
			c0.5,1.3,1,2.6,1.6,3.8c0.4,0.8,0.6,1.5,0.4,2.4c-0.1,0.2,0,0.4,0,0.6c0.1,0,0.1,0,0.2,0c0.1-0.3,0.1-0.7,0.2-1
			c0.1-0.2,0.3-0.4,0.5-0.5c0.1,0,0.4,0.2,0.5,0.3c0.2,0.9,0.4,1.7,0.6,2.6c0,0.1-0.2,0.5-0.4,0.5c-0.2,0-0.5-0.2-0.6-0.3
			c-0.1-0.1-0.1-0.4-0.2-0.6c0,0-0.1,0-0.1,0c0.1,0.9,0.2,1.8,0.3,2.8c0.5-0.3,1.1-0.5,1.4,0.2c0.1,0.3,0.1,0.8,0.2,1.1
			c-0.4,0-0.8,0-1.3,0c0,0.4,0.1,0.8,0.1,1.3c0,0.5,0,0.9,0,1.4c-0.1,0.9-0.3,1.7-0.5,2.6c0,0.2-0.3,0.3-0.4,0.4
			c-0.4,0.6-1.1,1.2-1.3,1.9c-0.4,1.5-0.8,2-2.4,2.2c-0.7,0.1-1.4,0.2-2,0.5c-0.4,0.2-0.7,0.7-0.9,1.2c-0.1,0.6,0.3,1,0.8,1.2
			c0.4,0.2,0.8,0.4,1,0.8c0.7,0.8,1.2,1.7,1.9,2.6c1.3,1.6,0.8,4.5-1.3,5.5C151.4,99.5,151,99.9,150.4,100.3z"/>
		<path class="st1" d="M143.1,94.1c-0.7,0.8-0.7,1,0.4,1.8c0.5,0.4,0.7,0.6,0.4,1.2c-0.1,0.2,0.1,0.8,0.3,1c0.2,0.2,0.6,0.2,1,0.1
			c0.2,0,0.4-0.2,0.7-0.4c1-0.6,2.5-0.2,3,0.9c0,0,0,0.1,0,0.1c0.6,0.9,0.6,0.9-0.5,1.3c-0.6,0.2-1,0.7-1,1.3
			c-0.1,1.5-0.9,2.5-2.2,3.3c-1.3,0.8-2.5,1.8-3.4,3.1c-0.3,0.5-1,0.8-1.6,1c-1.6,0.5-1.9,1.3-0.9,2.6c0.5,0.6,0.5,1.3,0,1.8
			c-0.5,0.5-1.2,0.4-1.7-0.3c-0.5-0.6-1-0.8-1.7-0.4c-0.2,0.1-0.6,0.3-0.8,0.2c-1.5-0.3-2.5,0.8-3.6,1.5c-0.5,0.3-0.9,0.9-1.1,1.5
			c-0.9,2.2-2.5,3.9-3.9,5.8c-0.2,0.3-0.7,0.4-1.1,0.5c-0.4,0.2-0.9,0.3-1.3,0.6c-0.7,0.5-1.2,1.2-1.8,1.7c-1,1-2.2,1.3-3.5,0.8
			c-1-0.4-1.9-0.9-2.9-1.3c0.2-1.2,0.1-1.3-1.1-1.5c-0.3,0-0.7-0.3-0.8-0.6c-0.5-0.7-1.1-0.9-1.8-0.9c-0.5,0-1,0-1.5,0
			c-1.2-0.1-1.8-1-1.4-2.1c0.2-0.7,0.6-1.5,1.1-2.1c1.1-1.2,2.2-2.4,3.4-3.5c1.5-1.3,3.2-2.4,4.9-3.5c0.6-0.4,1.3-0.7,2-0.8
			c2.1-0.3,4-1.1,5.8-2c1.7-0.9,3.5-1.8,5.1-2.8c0.7-0.4,1.3-1.1,1.8-1.8c0.4-0.5,0.8-1.2,1.1-1.8c0.5-1,1.1-1.7,2.3-1.9
			c0.9-0.2,1.5-1,1.8-1.8c0.5-1.4,1.2-2.6,2.8-3.1C141.9,93.7,142.5,93.6,143.1,94.1z M148.7,99.7c-0.2-0.3-0.4-0.5-0.4-0.6
			c0-0.7-0.4-0.9-0.9-1c-0.5,0-1.1,0.1-1.7,0.3c-0.6,0.2-1.2,0.5-1.9,0.1c-0.6-0.4-0.7-1-0.4-1.7c0-0.1-0.1-0.5-0.2-0.5
			c-0.9-0.4-1-1.1-0.9-2c-0.4,0.1-0.8,0.2-1.1,0.3c-1.3,0.4-1.9,1.4-2.3,2.6c-0.4,1.1-1.1,2-2.2,2.3c-0.9,0.2-1.5,0.8-1.9,1.6
			c-0.3,0.6-0.6,1.2-1,1.7c-0.6,0.8-1.2,1.6-2.1,2.1c-1.8,1.1-3.7,2-5.5,3c-1.8,0.9-3.6,1.5-5.6,1.9c-0.5,0.1-1.1,0.3-1.5,0.6
			c-2,1.3-3.9,2.7-5.8,4.1c-1,0.8-1.8,1.7-2.6,2.7c-0.5,0.6-0.8,1.2-1.1,1.9c-0.4,0.9,0.1,1.6,1.1,1.7c0.5,0.1,0.9,0,1.4,0
			c0.8,0,1.5,0.2,2.1,0.9c0.2,0.2,0.6,0.4,0.9,0.5c0.9,0.1,1.1,0.4,1.2,1.3c0,0.2,0.2,0.5,0.4,0.6c0.6,0.3,1.3,0.6,1.9,0.9
			c1.3,0.5,2.4,0.2,3.4-0.7c0.5-0.5,1-1,1.6-1.6c0.5-0.5,1-0.8,1.7-0.7c0.3,0,0.6-0.2,0.8-0.4c1.5-1.9,3-3.8,4-6
			c0.3-0.6,0.8-1.2,1.3-1.6c0.5-0.5,1.1-0.9,1.7-1.3c0.1-0.1,0.4-0.1,0.5-0.1c0.7-0.1,1.4,0,2.1-0.2c1.2-0.4,1.2-0.5,2,0.4
			c0.3,0.4,0.8,0.7,1.2,0.3c0.4-0.4,0.3-0.9-0.1-1.3c-0.2-0.3-0.5-0.6-0.6-1c-0.2-0.9,0.3-1.8,1.2-2c1.2-0.2,2-0.9,2.7-1.9
			c0.4-0.6,1.1-1.1,1.7-1.5c0.6-0.5,1.3-0.9,1.9-1.4c0.4-0.4,0.8-1,1-1.6C147.1,101.1,147,99.8,148.7,99.7z"/>
		<path class="st1" d="M112.2,126.8c0.3-0.3,0.6-0.4,0.7-0.7c0.2-0.3,0.3-0.7,0.5-1.1c0.1-0.1,0.2-0.3,0.2-0.4
			c0.1,0.1,0.3,0.1,0.4,0.3c0.2,0.4,0.4,0.8,0.4,1.2c0.1,0.6-0.4,0.8-0.9,0.8C113.2,126.9,112.8,126.9,112.2,126.8z"/>
		<path class="st1" d="M156,72.9c0.2-0.5,0.3-0.9,0.5-1.4c0.1,0,0.1,0,0.2,0c0.2,0.7,0.4,1.5,0.5,2C156.8,73.3,156.4,73.1,156,72.9
			C156,72.9,156,72.9,156,72.9z"/>
	</g>
</g>
<g>
	<path class="st2" d="M91.3,152.7H92v20.9h-0.7h-0.1l-12.7-19.8v19.8h-0.7v-20.9h0h0.7h0.1l12.7,19.8V152.7z"/>
	<path class="st2" d="M107.1,172.8h9.4v0.7h-9.4h-0.7H97v-0.7l18.6-19.5h-8.5h-0.7H97v-0.7h9.4h0.7h9.4v0.7l-18.6,19.5h8.5H107.1z"
		/>
	<path class="st2" d="M149.3,152.7h0.7v20.9h-0.7v-19.2l-8.2,19.2h-0.8l-8.1-19.1v19.1h-0.7v-20.9h0.7l8.5,20L149.3,152.7
		L149.3,152.7z"/>
	<path class="st2" d="M170.8,173.5l-5-11.6h-7.4l-5,11.6h-0.7l9-20.9h0.7l9,20.9H170.8z M158.8,161.4h6.8l-3.4-7.9L158.8,161.4z"/>
	<path class="st2" d="M191.6,163v0.1v0.1c0,1.3-0.1,2.4-0.3,3.5s-0.4,1.9-0.8,2.6c-0.3,0.7-0.8,1.3-1.3,1.9c-0.5,0.5-1,0.9-1.7,1.2
		c-0.6,0.3-1.3,0.5-2,0.7s-1.5,0.3-2.4,0.4s-1.7,0.1-2.7,0.1c-0.9,0-1.9,0-2.9,0c-1,0-1.8,0-2.3,0v-20.9h0.4c3.7,0,5.9,0,6.4,0
		c3,0.2,5.2,0.8,6.6,2C190.7,156.2,191.6,159,191.6,163L191.6,163z M176.1,172.8c0.4,0,1.1,0,1.9,0c3.2,0,5.5-0.1,6.8-0.4
		c2.5-0.5,4.2-1.8,5.1-3.8c0.6-1.4,1-3.3,1-5.6c0-1.4-0.1-2.6-0.4-3.7c-0.2-1-0.6-1.9-1-2.6c-0.4-0.7-0.9-1.3-1.5-1.7
		c-0.6-0.5-1.3-0.8-2-1.1c-0.7-0.2-1.5-0.4-2.4-0.5c-0.9-0.1-1.8-0.2-2.7-0.2c-0.9,0-1.9,0-3,0c-0.7,0-1.2,0-1.6,0H176L176.1,172.8z
		"/>
	<path class="st2" d="M210.7,172.8v0.7h-5.1h-8.2h-0.7v-20.9h0.6h8.3h5.1v0.7h-13.4v7h8.2h5.2v0.7h-13.4v11.8H210.7z"/>
</g>
</svg>
