<?xml version="1.0" encoding="utf-8"?>
<!-- Generator: Adobe Illustrator 19.2.1, SVG Export Plug-In . SVG Version: 6.00 Build 0)  -->
<svg version="1.1" id="Layer_1" xmlns="http://www.w3.org/2000/svg" xmlns:xlink="http://www.w3.org/1999/xlink" x="0px" y="0px"
	 viewBox="0 0 288.5 216.4" style="enable-background:new 0 0 288.5 216.4;" xml:space="preserve">
<style type="text/css">
	.st0{fill:none;stroke:#231F20;stroke-width:0.5669;stroke-miterlimit:10;}
	.st1{fill:none;stroke:#231F20;stroke-width:0.3982;stroke-miterlimit:10;}
	.st2{fill:none;stroke:#231F20;}
</style>
<path class="st0" d="M132.4,137.4c-23.2-3.7-41-23.9-41-48.2c0-27,21.8-48.8,48.8-48.8"/>
<path class="st0" d="M146.5,40.8c24,3.1,42.5,23.6,42.5,48.4c0,27-21.8,48.8-48.8,48.8"/>
<line class="st0" x1="140.2" y1="40.4" x2="140.2" y2="53.8"/>
<line class="st0" x1="140.2" y1="138" x2="140.2" y2="125.3"/>
<g id="WHf4L8.tif">
	<g>
		<path class="st1" d="M145.5,67.7c5.6,0,9.7,4.9,8.8,10.3c-0.6,3.6-2.4,6.4-4.7,9c-4.5,4.9-9.9,8.6-15.6,11.9
			c-5.2,3-10.4,5.8-15.7,8.7c-0.3,0.2-0.6,0.3-0.9,0.4c-1.1,0.5-1.9,0.2-2.4-0.7c-0.4-0.9,0-1.7,1.1-2.2c3.1-1.6,6.2-3,9.2-4.7
			c4.6-2.7,9.2-5.5,13.7-8.5c3.5-2.3,6.7-5,9.3-8.3c1.4-1.8,2.5-3.7,2.8-6.1c0.3-2.1-0.2-4-1.9-5.3c-1.7-1.4-3.7-1.7-5.7-0.8
			c-2.1,0.9-3.8,2.3-5.3,3.9c-5.3,5.5-10.9,10.6-18,13.7c-2,0.9-4,1.6-6,2.3c-1.3,0.4-2,0-2.2-1c-0.2-1.1,0.2-1.7,1.4-2.1
			c6.8-2,12.6-5.9,17.8-10.7c2.3-2.2,4.5-4.5,6.8-6.6C140.2,69.1,142.7,67.7,145.5,67.7z"/>
		<path class="st1" d="M139.3,57c-5.2,0-9.4,2.3-13.3,5.5c-3.2,2.6-5.6,5.9-8.2,9.1c-0.9,1.1-2,2-3.2,2.9c-1,0.8-2,0.5-2.5-0.3
			c-0.5-0.8-0.2-1.6,0.8-2.4c1.1-0.9,2.2-1.9,3.1-3c3-3.9,6.2-7.6,10.2-10.5c3.8-2.7,8-4.4,12.7-4.5c5.8-0.1,10.8,1.9,14.9,6.1
			c4.2,4.3,6.5,9.7,8.1,15.4c0.6,2,1.4,3.9,2.1,5.8c0.3,0.8,0.2,1.5-0.4,2c-0.7,0.5-1.5,0.5-2-0.1c-0.6-0.7-1.1-1.5-1.4-2.4
			c-0.9-2.7-1.6-5.5-2.5-8.2c-1.7-4.7-4.1-9-8.2-12.1C146.5,58.1,143.1,57,139.3,57z"/>
		<path class="st1" d="M158.6,112.8c-0.8-0.3-1.4-0.4-1.9-0.8c-2.9-1.8-5.8-3.7-8.7-5.5c-1.3-0.8-2.6-1.6-3.9-2.4
			c-1.2-0.7-2.4-0.8-3.6,0c-3.3,2.1-6.6,4.2-9.9,6.2c-2.7,1.6-5.3,3.3-8,4.8c-0.7,0.4-1.4,0.6-2.2,0.8c-0.8,0.2-1.4-0.2-1.7-1
			c-0.3-0.8-0.1-1.6,0.8-2c5.1-2.1,9.4-5.6,14-8.4c2-1.2,4.1-2.4,6.2-3.6c1.6-0.9,3.3-1,4.8-0.1c2.6,1.5,5,3.1,7.6,4.7
			c2.2,1.4,4.5,2.7,6.8,4c0.7,0.4,1.3,1,1,1.8C159.6,111.9,159,112.3,158.6,112.8z"/>
		<path class="st1" d="M147,76.9c-0.3,0.6-0.5,1-0.7,1.4c-3.3,4.5-7.3,8.2-11.8,11.5c-5.8,4.2-12,7.4-18.7,9.9
			c-0.2,0.1-0.3,0.1-0.5,0.2c-1.1,0.4-2,0-2.3-0.9c-0.3-0.9,0.2-1.7,1.2-2.1c3.5-1.5,7.1-2.9,10.4-4.7c7.4-3.9,14-8.9,19.1-15.7
			c0.5-0.7,1.2-1.3,2-0.9C146.2,75.8,146.6,76.4,147,76.9z"/>
		<path class="st1" d="M143.7,62.7c-0.3,0.2-0.7,0.9-1.3,1c-6,1-10.3,4.7-13.9,9.2c-3.4,4.2-7.6,7.2-12.4,9.4
			c-0.5,0.2-1,0.5-1.6,0.6c-1,0.3-1.8-0.2-2-1.1c-0.3-1,0.2-1.6,1-2c1.3-0.6,2.7-1.2,4-1.9c3.5-1.7,6.3-4.4,8.7-7.4
			c3.2-3.9,6.8-7.1,11.6-8.9c1.2-0.5,2.6-0.7,3.9-1C142.9,60.5,143.8,61.2,143.7,62.7z"/>
		<path class="st1" d="M140.8,110.2c1,0.3,1.9,0.4,2.7,0.9c2.3,1.2,4.4,2.5,6.7,3.8c1.5,0.9,3,1.7,4.6,2.5c0.9,0.5,1.3,1.3,0.9,2.2
			c-0.3,0.8-1.3,1.2-2.2,0.7c-2.3-1.2-4.5-2.5-6.8-3.8c-1.2-0.7-2.5-1.3-3.7-2.1c-1.5-1-2.9-0.8-4.3,0.2c-2.8,2-5.7,3.9-8.5,5.9
			c-1.1,0.8-2.2,1.6-3.3,2.4c-0.9,0.6-1.7,0.4-2.2-0.4c-0.5-0.8-0.4-1.6,0.4-2.2c4.3-3,8.6-6,12.9-8.9
			C138.8,110.8,139.9,110.6,140.8,110.2z"/>
		<path class="st1" d="M140.2,120.3c1.1,0.4,2.1,0.5,3,1c2.1,1.3,4.2,2.7,6.2,4.1c0.8,0.5,0.9,1.3,0.4,2.2c-0.5,0.8-1.4,0.9-2.3,0.4
			c-1.5-1-2.9-2-4.4-3c-2.6-1.7-3.2-1.7-5.6,0.2c-1.3,1-2.5,2.1-3.7,3.3c-1,0.9-1.8,1-2.5,0.3c-0.7-0.7-0.7-1.7,0.2-2.5
			c1.9-1.7,3.9-3.3,6-4.8C138.2,120.8,139.2,120.6,140.2,120.3z"/>
		<path class="st1" d="M150.3,91.9c0.2,0.2,0.8,0.4,1,0.9c1.9,4,5.2,6.4,9.2,7.9c0.9,0.3,1.2,1,0.9,2c-0.3,1-1,1.3-2,1
			c-4.8-1.6-8.5-4.5-10.8-9.1C147.9,93.1,148.5,91.9,150.3,91.9z"/>
		<path class="st1" d="M164.3,93.4c0,1.2-0.9,2-2,1.6c-3.6-1.2-7-3.7-7.8-7.9c-0.2-1,0.3-1.9,1.3-2.1c1-0.2,1.5,0.2,1.7,1.3
			c0.5,2.7,2.3,4.3,4.8,5.3C163.9,92.2,164.3,92.5,164.3,93.4z"/>
	</g>
</g>
<g>
	<path class="st2" d="M92.3,165.7c1.3,1.1,3,1.6,4.9,1.6c1.9,0,3.5-0.5,4.9-1.6c1.3-1.1,2-2.4,2-4v-14.6h0.7v14.6
		c0,1.7-0.8,3.2-2.3,4.4c-1.5,1.2-3.3,1.8-5.4,1.8c-2.1,0-3.8-0.6-5.3-1.8c-1.4-1.1-2.1-2.5-2.2-4.1h0v-15h0.7v14.6
		C90.3,163.2,91,164.6,92.3,165.7z"/>
	<path class="st2" d="M121.7,147.1h0.7V168h-0.7h-0.1l-12.7-19.8V168h-0.7v-20.9h0h0.7h0.1l12.7,19.8V147.1z"/>
	<path class="st2" d="M129.3,167.3v0.7h-0.7v-20.9h0.6h0.1v8.4V167.3z"/>
	<path class="st2" d="M144.5,168c-1.2,0-2.4-0.3-3.5-0.8c-1-0.5-2-1.2-2.8-2.3c-1.7-2-2.6-4.5-2.6-7.4c0-2.9,0.9-5.3,2.6-7.3
		c0.9-1,1.8-1.8,2.8-2.3c1.1-0.5,2.2-0.8,3.5-0.8c1.2,0,2.4,0.3,3.5,0.8c1,0.5,1.9,1.2,2.8,2.3c1.7,2,2.6,4.5,2.6,7.3
		c0,2.8-0.8,5.3-2.5,7.3l2.3,3.1h-0.9l-1.9-2.6c-0.7,0.7-1.5,1.3-2.4,1.8C146.9,167.7,145.7,168,144.5,168z M144.5,167.3
		c2.1,0,3.9-0.8,5.5-2.5l-3.1-4.3h0.9l2.7,3.8c1.5-1.9,2.2-4.1,2.2-6.7c0-2.7-0.8-5-2.4-6.9c-1.6-1.9-3.5-2.8-5.8-2.8
		c-2.3,0-4.2,0.9-5.8,2.8c-1.6,1.9-2.4,4.2-2.4,6.9s0.8,5,2.4,6.9C140.3,166.3,142.2,167.3,144.5,167.3z"/>
	<path class="st2" d="M161,165.7c1.3,1.1,3,1.6,4.9,1.6c1.9,0,3.5-0.5,4.9-1.6c1.3-1.1,2-2.4,2-4v-14.6h0.7v14.6
		c0,1.7-0.8,3.2-2.3,4.4c-1.5,1.2-3.3,1.8-5.4,1.8c-2.1,0-3.8-0.6-5.3-1.8c-1.4-1.1-2.1-2.5-2.2-4.1h0v-15h0.7v14.6
		C159,163.2,159.7,164.6,161,165.7z"/>
	<path class="st2" d="M190.9,167.3v0.7h-5.1h-8.2h-0.7v-20.9h0.6h8.3h5.1v0.7h-13.4v7h8.2h5.2v0.7h-13.4v11.8H190.9z"/>
</g>
</svg>
